<svg width="68" height="20" viewBox="0 0 68 20" fill="none" xmlns="http://www.w3.org/2000/svg">
<path d="M5.62109 5.03906C6.46745 5.03906 7.22917 5.2474 7.90625 5.66406C8.59635 6.06771 9.14323 6.64062 9.54688 7.38281C9.96354 8.11198 10.1719 8.97135 10.1719 9.96094C10.1719 11.0286 9.96354 11.9661 9.54688 12.7734C9.14323 13.5677 8.58333 14.1862 7.86719 14.6289C7.16406 15.0716 6.36328 15.293 5.46484 15.293C4.90495 15.293 4.33203 15.1432 3.74609 14.8438C3.17318 14.5443 2.67839 14.1602 2.26172 13.6914V19.6875H0.660156V5.23438H2.26172V6.89453C2.60026 6.3737 3.05599 5.9375 3.62891 5.58594C4.21484 5.22135 4.87891 5.03906 5.62109 5.03906ZM5.36719 6.60156C4.78125 6.60156 4.2474 6.7513 3.76562 7.05078C3.29688 7.35026 2.92578 7.76693 2.65234 8.30078C2.39193 8.82161 2.26172 9.43359 2.26172 10.1367L2.28125 12.0117C2.69792 12.5195 3.13411 12.9362 3.58984 13.2617C4.04557 13.5742 4.57292 13.7305 5.17188 13.7305C5.875 13.7305 6.47396 13.5482 6.96875 13.1836C7.46354 12.819 7.84115 12.3503 8.10156 11.7773C8.375 11.1914 8.51172 10.5859 8.51172 9.96094C8.51172 9.32292 8.38151 8.75651 8.12109 8.26172C7.86068 7.75391 7.49609 7.35026 7.02734 7.05078C6.55859 6.7513 6.00521 6.60156 5.36719 6.60156ZM13.4102 0.9375V15H11.8086V0.9375H13.4102ZM19.7539 5.03906C20.3138 5.03906 20.8802 5.17578 21.4531 5.44922C22.0391 5.70964 22.5404 6.07422 22.957 6.54297V5.23438H24.5586V15H22.957V13.3398C22.6185 13.8607 22.1562 14.3164 21.5703 14.707C20.9974 15.0977 20.3398 15.293 19.5977 15.293C18.7643 15.293 18.0026 15.0846 17.3125 14.668C16.6224 14.2383 16.069 13.6458 15.6523 12.8906C15.2487 12.1354 15.0469 11.263 15.0469 10.2734C15.0469 9.19271 15.2487 8.26172 15.6523 7.48047C16.069 6.69922 16.6354 6.10026 17.3516 5.68359C18.0677 5.25391 18.8685 5.03906 19.7539 5.03906ZM20.0469 6.60156C19.3438 6.60156 18.7448 6.77734 18.25 7.12891C17.7552 7.48047 17.3711 7.9362 17.0977 8.49609C16.8372 9.04297 16.707 9.63542 16.707 10.2734C16.707 10.8984 16.8372 11.4779 17.0977 12.0117C17.3581 12.5326 17.7227 12.9492 18.1914 13.2617C18.6732 13.5742 19.2266 13.7305 19.8516 13.7305C20.4505 13.7305 20.9844 13.5742 21.4531 13.2617C21.9219 12.9492 22.293 12.5195 22.5664 11.9727C22.8398 11.4128 22.9701 10.7878 22.957 10.0977L22.9375 8.22266C22.5339 7.71484 22.0977 7.31771 21.6289 7.03125C21.1732 6.74479 20.6458 6.60156 20.0469 6.60156ZM28.4805 5.23438V6.77734C28.6888 6.51693 28.9557 6.25651 29.2812 5.99609C29.6068 5.72266 29.9714 5.49479 30.375 5.3125C30.7917 5.13021 31.2214 5.03906 31.6641 5.03906C32.3281 5.03906 32.9336 5.1888 33.4805 5.48828C34.0273 5.77474 34.4635 6.21745 34.7891 6.81641C35.1146 7.40234 35.2773 8.14453 35.2773 9.04297V15H33.6758L33.6562 9.19922C33.6562 8.35286 33.4674 7.70833 33.0898 7.26562C32.7253 6.82292 32.1589 6.60156 31.3906 6.60156C30.8698 6.60156 30.349 6.79688 29.8281 7.1875C29.3203 7.5651 28.8711 8.00781 28.4805 8.51562V15H26.8789V5.23438H28.4805ZM38.9062 5.23438V6.77734C39.1146 6.51693 39.3815 6.25651 39.707 5.99609C40.0326 5.72266 40.3971 5.49479 40.8008 5.3125C41.2174 5.13021 41.6471 5.03906 42.0898 5.03906C42.7539 5.03906 43.3594 5.1888 43.9062 5.48828C44.4531 5.77474 44.8893 6.21745 45.2148 6.81641C45.5404 7.40234 45.7031 8.14453 45.7031 9.04297V15H44.1016L44.082 9.19922C44.082 8.35286 43.8932 7.70833 43.5156 7.26562C43.151 6.82292 42.5846 6.60156 41.8164 6.60156C41.2956 6.60156 40.7747 6.79688 40.2539 7.1875C39.7461 7.5651 39.2969 8.00781 38.9062 8.51562V15H37.3047V5.23438H38.9062ZM51.7539 5.03906C52.7565 5.03906 53.5898 5.2474 54.2539 5.66406C54.918 6.08073 55.4128 6.64714 55.7383 7.36328C56.0768 8.07943 56.2461 8.88672 56.2461 9.78516V10.7422H48.7461C48.8242 11.2891 49.013 11.7904 49.3125 12.2461C49.612 12.7018 50.0026 13.0664 50.4844 13.3398C50.9661 13.6003 51.5195 13.7305 52.1445 13.7305C52.8477 13.7305 53.5052 13.5547 54.1172 13.2031C54.7292 12.8385 55.2435 12.4414 55.6602 12.0117L55.6406 13.75C55.4583 13.9714 55.1849 14.2057 54.8203 14.4531C54.4688 14.6875 54.0586 14.8828 53.5898 15.0391C53.1341 15.2083 52.6523 15.293 52.1445 15.293C51.1549 15.293 50.276 15.0586 49.5078 14.5898C48.7396 14.1211 48.1341 13.5026 47.6914 12.7344C47.2617 11.9531 47.0469 11.1003 47.0469 10.1758C47.0469 9.2513 47.2487 8.39844 47.6523 7.61719C48.056 6.83594 48.6094 6.21094 49.3125 5.74219C50.0286 5.27344 50.8424 5.03906 51.7539 5.03906ZM51.7539 6.60156C50.9466 6.60156 50.2826 6.875 49.7617 7.42188C49.2409 7.95573 48.9154 8.60677 48.7852 9.375H54.6641C54.599 8.73698 54.4167 8.21615 54.1172 7.8125C53.8307 7.40885 53.4792 7.10938 53.0625 6.91406C52.6458 6.70573 52.2096 6.60156 51.7539 6.60156ZM59.4844 5.23438V7.1875C59.862 6.53646 60.3177 6.01562 60.8516 5.625C61.3854 5.23438 61.9323 5.03906 62.4922 5.03906C62.8698 5.03906 63.2083 5.10417 63.5078 5.23438V7.08984C63.0911 6.84245 62.6745 6.71875 62.2578 6.71875C61.5938 6.71875 61.0534 6.95312 60.6367 7.42188C60.2331 7.89062 59.849 8.45052 59.4844 9.10156V15H57.8828V5.23438H59.4844ZM65.8281 12.6172C66.2057 12.6172 66.5247 12.7539 66.7852 13.0273C67.0586 13.2878 67.1953 13.6068 67.1953 13.9844C67.1953 14.349 67.0586 14.668 66.7852 14.9414C66.5247 15.2148 66.2057 15.3516 65.8281 15.3516C65.4505 15.3516 65.125 15.2148 64.8516 14.9414C64.5911 14.668 64.4609 14.349 64.4609 13.9844C64.4609 13.6068 64.5911 13.2878 64.8516 13.0273C65.125 12.7539 65.4505 12.6172 65.8281 12.6172Z" fill="black"/>
</svg>
