<svg width="24" height="24" viewBox="0 0 24 24" fill="none" xmlns="http://www.w3.org/2000/svg">
<rect x="0.5" y="0.5" width="23" height="23" rx="1.5" fill="white" stroke="#B556FF"/>
<path d="M12.1172 5.03906C12.9635 5.03906 13.7253 5.2474 14.4023 5.66406C15.0924 6.06771 15.6393 6.64062 16.043 7.38281C16.4596 8.11198 16.668 8.97135 16.668 9.96094C16.668 11.0286 16.4596 11.9661 16.043 12.7734C15.6393 13.5677 15.0794 14.1862 14.3633 14.6289C13.6602 15.0716 12.8594 15.293 11.9609 15.293C11.401 15.293 10.8281 15.1432 10.2422 14.8438C9.66927 14.5443 9.17448 14.1602 8.75781 13.6914V19.6875H7.15625V5.23438H8.75781V6.89453C9.09635 6.3737 9.55208 5.9375 10.125 5.58594C10.7109 5.22135 11.375 5.03906 12.1172 5.03906ZM11.8633 6.60156C11.2773 6.60156 10.7435 6.7513 10.2617 7.05078C9.79297 7.35026 9.42188 7.76693 9.14844 8.30078C8.88802 8.82161 8.75781 9.43359 8.75781 10.1367L8.77734 12.0117C9.19401 12.5195 9.63021 12.9362 10.0859 13.2617C10.5417 13.5742 11.069 13.7305 11.668 13.7305C12.3711 13.7305 12.9701 13.5482 13.4648 13.1836C13.9596 12.819 14.3372 12.3503 14.5977 11.7773C14.8711 11.1914 15.0078 10.5859 15.0078 9.96094C15.0078 9.32292 14.8776 8.75651 14.6172 8.26172C14.3568 7.75391 13.9922 7.35026 13.5234 7.05078C13.0547 6.7513 12.5013 6.60156 11.8633 6.60156ZM19.5742 12.6172C19.9518 12.6172 20.2708 12.7539 20.5312 13.0273C20.8047 13.2878 20.9414 13.6068 20.9414 13.9844C20.9414 14.349 20.8047 14.668 20.5312 14.9414C20.2708 15.2148 19.9518 15.3516 19.5742 15.3516C19.1966 15.3516 18.8711 15.2148 18.5977 14.9414C18.3372 14.668 18.207 14.349 18.207 13.9844C18.207 13.6068 18.3372 13.2878 18.5977 13.0273C18.8711 12.7539 19.1966 12.6172 19.5742 12.6172Z" fill="#B556FF"/>
</svg>
